<?xml version="1.0" encoding="UTF-8"?>
<svg xmlns="http://www.w3.org/2000/svg" width="688.98" height="162.26" viewBox="0 0 688.98 162.26">
  <g id="logoText" style="fill:#1d1d1b;">
    <path
      d="M209.51,71.03l-3.98,22.56h-23.02l10.56-59.89h68.5l-2.68,15.22h-45.49l-1.28,7.25h24.1l-2.62,14.86h-24.1,0Z"/>
    <path
      d="M303.57,93.59l2.88-16.31c.25-1.39.06-2.41-.54-3.08-.61-.66-2.06-1-4.35-1h-20.57l-3.6,20.39h-22.83l10.56-59.89h50.65c4.23,0,7.66.24,10.29.73,2.63.48,4.61,1.28,5.92,2.4,1.31,1.12,2.1,2.58,2.35,4.4.25,1.81.14,4.08-.34,6.8l-1.65,9.33c-.47,2.66-1.42,4.73-2.86,6.21-1.44,1.48-3.17,2.49-5.2,3.04,1.68.42,3.09,1.34,4.23,2.76,1.14,1.42,1.49,3.37,1.05,5.84l-3.24,18.39h-22.75ZM310.83,52.45c.2-1.15.1-2.02-.31-2.63-.41-.6-1.55-.91-3.42-.91h-21.84l-1.85,10.51h21.84c1.99,0,3.27-.33,3.85-1,.57-.66.98-1.69,1.22-3.08l.51-2.9h0Z" />
    <path d="M331.57,93.59l10.56-59.89h22.83l-10.56,59.89h-22.83Z" />
    <path
      d="M379.87,93.59l7.88-44.67h-21.75l2.68-15.22h66.33l-2.68,15.22h-21.66l-7.88,44.67h-22.92Z"/>
    <path
      d="M426.8,93.59l2.68-15.22h47.21c1.21,0,2.06-.3,2.56-.91.5-.6.87-1.6,1.12-2.99.21-1.21.14-2.07-.23-2.58s-1.09-.77-2.17-.77h-29.9c-5.74,0-9.86-1.1-12.37-3.31-2.51-2.2-3.42-5.27-2.73-9.2l1.9-10.78c.45-2.54,1.12-4.71,2.01-6.52s2.16-3.28,3.81-4.4c1.65-1.12,3.8-1.93,6.46-2.45,2.66-.51,5.98-.77,9.97-.77h45.94l-2.65,15.04h-41.41c-1.21,0-2.05.3-2.51.91-.47.6-.81,1.51-1.02,2.72-.21,1.21-.13,2.11.25,2.72.38.6,1.17.91,2.38.91h29.45c6.16,0,10.38,1.24,12.67,3.72,2.28,2.48,3.02,5.98,2.22,10.51l-1.6,9.06c-.44,2.48-1.13,4.61-2.08,6.39-.95,1.78-2.27,3.26-3.95,4.44-1.69,1.18-3.78,2.05-6.26,2.63-2.49.57-5.48.86-8.99.86h-52.76Z"/>
    <path
      d="M525.84,93.59c-4.29,0-7.86-.2-10.72-.59s-5.1-1.12-6.73-2.17c-1.63-1.06-2.67-2.51-3.13-4.35s-.43-4.24.09-7.2l5.51-31.26c.51-2.9,1.32-5.29,2.44-7.16,1.11-1.87,2.67-3.34,4.67-4.39,2-1.06,4.5-1.78,7.5-2.17,3-.39,6.64-.59,10.93-.59h46.03l-2.68,15.22h-39.51c-2.42,0-4.17.33-5.25,1s-1.75,1.69-1.99,3.08l-3.75,21.29c-.48,2.72,1.46,4.08,5.81,4.08h39.51l-2.68,15.22h-46.05Z"/>
    <path
      d="M626.24,93.59l3.95-22.38h-26.01l-3.95,22.38h-23.01l10.56-59.89h23.02l-3.93,22.29h26l3.93-22.29h22.92l-10.56,59.89h-22.92Z"/>
    <path d="M655.59,93.59l10.56-59.89h22.83l-10.56,59.89h-22.83Z"/>
    <path
      d="M189.03,122.26l-2.82-.74c-.96-.25-1.6-.69-1.92-1.33-.32-.64-.38-1.52-.19-2.63.15-.83.35-1.49.61-1.99s.63-.88,1.09-1.14c.46-.25.96-.42,1.49-.5s1.23-.12,2.1-.12c1.68.03,3.06.17,4.16.41l-.35,1.32c-1.32-.07-2.66-.1-4.01-.1-.61,0-1.06.02-1.35.04-.29.03-.59.11-.89.25s-.52.35-.66.65-.26.71-.35,1.23c-.13.76-.09,1.29.12,1.61.21.32.64.56,1.27.72l2.76.72c1.01.26,1.68.71,1.99,1.34.31.63.37,1.52.17,2.66-.28,1.57-.81,2.61-1.61,3.12s-2.08.76-3.84.76c-1.5,0-2.95-.13-4.35-.39l.36-1.34c2.3.08,3.74.12,4.34.1,1.13,0,1.92-.14,2.36-.43.45-.29.75-.91.92-1.86.14-.78.1-1.33-.11-1.64-.22-.31-.64-.55-1.27-.71h-.02Z"/>
    <path
      d="M232.69,114.04l-5.31,13.71c-.16.36-.43.54-.82.54h-2.07c-.4,0-.6-.18-.6-.56l-.34-10.72c-.02-.36-.04-.89-.05-1.61h-.43l-.59,1.61-4.1,10.72c-.16.37-.44.56-.82.56h-2.09c-.18,0-.33-.05-.44-.15-.11-.1-.17-.23-.17-.38l-.47-13.71h1.92l.27,11.11c0,.12,0,.71-.02,1.76h.47c.23-.65.44-1.23.64-1.76l4.06-10.51c.14-.4.41-.6.81-.6h1.98c.37,0,.57.2.6.6l.36,10.51c.02.68,0,1.26-.02,1.76h.52c.27-.83.46-1.4.57-1.73l4.21-11.13h1.92v-.02Z"/>
    <path d="M253.01,128.29h-1.82l2.51-14.25h1.82l-2.51,14.25Z"/>
    <path
      d="M281.35,122.26l-2.82-.74c-.96-.25-1.6-.69-1.92-1.33s-.38-1.52-.19-2.63c.15-.83.35-1.49.61-1.99.26-.5.63-.88,1.09-1.14.46-.25.96-.42,1.49-.5s1.23-.12,2.1-.12c1.68.03,3.06.17,4.16.41l-.36,1.32c-1.32-.07-2.66-.1-4.01-.1-.61,0-1.06.02-1.35.04-.29.03-.59.11-.89.25-.3.14-.52.35-.66.65s-.26.71-.35,1.23c-.13.76-.09,1.29.12,1.61s.63.56,1.27.72l2.76.72c1.01.26,1.68.71,1.99,1.34s.37,1.52.17,2.66c-.28,1.57-.81,2.61-1.61,3.12s-2.08.76-3.84.76c-1.5,0-2.95-.13-4.35-.39l.36-1.34c2.3.08,3.75.12,4.34.1,1.13,0,1.92-.14,2.36-.43.45-.29.75-.91.92-1.86.14-.78.1-1.33-.11-1.64-.22-.31-.64-.55-1.27-.71h0Z"/>
    <path
      d="M311.52,122.26l-2.82-.74c-.96-.25-1.6-.69-1.92-1.33s-.38-1.52-.19-2.63c.15-.83.35-1.49.61-1.99.26-.5.63-.88,1.09-1.14.46-.25.96-.42,1.49-.5s1.23-.12,2.1-.12c1.68.03,3.06.17,4.16.41l-.35,1.32c-1.32-.07-2.66-.1-4.01-.1-.61,0-1.06.02-1.35.04-.29.03-.59.11-.89.25-.3.14-.52.35-.66.65s-.26.71-.35,1.23c-.13.76-.09,1.29.12,1.61s.64.56,1.27.72l2.76.72c1.01.26,1.68.71,1.99,1.34s.37,1.52.17,2.66c-.28,1.57-.81,2.61-1.61,3.12s-2.08.76-3.84.76c-1.5,0-2.95-.13-4.35-.39l.36-1.34c2.3.08,3.74.12,4.34.1,1.13,0,1.92-.14,2.36-.43.45-.29.75-.91.92-1.86.14-.78.1-1.33-.11-1.64-.22-.31-.64-.55-1.27-.71h-.02Z"/>
    <path
      d="M366.98,120.86l-.02.08c1.02.1,1.69.46,2.01,1.08s.38,1.53.17,2.72c-.25,1.43-.76,2.41-1.53,2.93s-1.99.78-3.67.78c-2.28,0-4.03-.06-5.23-.17l2.51-14.25c1.11-.11,2.66-.16,4.65-.16,1.77,0,2.97.26,3.57.77.6.52.78,1.5.52,2.94-.18,1.03-.51,1.81-.99,2.34-.48.53-1.15.84-2,.92v.02ZM361.66,121.6l-.93,5.29c.56.01,1.63.02,3.2.02,1.16,0,1.97-.17,2.45-.5s.8-.99.98-1.98c.19-1.09.1-1.82-.28-2.21s-1.16-.59-2.34-.62h-3.08ZM361.91,120.22h3.05c1.06-.01,1.82-.18,2.28-.52.46-.33.77-.96.93-1.9.17-.95.06-1.58-.32-1.9s-1.16-.48-2.34-.48h-2.77l-.85,4.79h.02Z"/>
    <path d="M391.91,128.29h-1.82l2.51-14.25h1.82l-2.51,14.25Z"/>
    <path
      d="M427.56,114.04l-2.38,13.53c-.09.48-.36.72-.83.72h-1.78c-.37,0-.61-.19-.7-.58l-3.03-10.1c-.29-1.02-.45-1.65-.47-1.88h-.33c-.04.55-.12,1.18-.25,1.88l-1.88,10.68h-1.82l2.38-13.53c.08-.48.37-.72.85-.72h1.71c.37,0,.6.19.7.58l2.93,9.85c.23.67.43,1.36.61,2.06h.35c.09-.74.2-1.46.32-2.17l1.82-10.32s1.8,0,1.8,0Z"/>
    <path
      d="M447.23,128.29l2.51-14.25c1.81-.12,3.52-.18,5.11-.18,2.05,0,3.4.53,4.03,1.6.64,1.07.72,2.97.23,5.71-.48,2.74-1.23,4.64-2.24,5.71-1.01,1.07-2.55,1.6-4.6,1.6-1.6,0-3.28-.06-5.05-.18h0ZM451.31,115.47l-2.01,11.38c1.24.03,2.32.04,3.26.04,1.36,0,2.39-.42,3.07-1.25s1.21-2.32,1.59-4.47.37-3.64-.02-4.48c-.39-.84-1.26-1.26-2.63-1.26-.88,0-1.97.02-3.27.04h0Z"/>
    <path d="M481.34,128.29h-1.82l2.51-14.25h1.82l-2.51,14.25Z"/>
    <path
      d="M516.99,114.04l-2.38,13.53c-.09.48-.36.72-.83.72h-1.78c-.37,0-.61-.19-.7-.58l-3.03-10.1c-.29-1.02-.45-1.65-.47-1.88h-.33c-.04.55-.13,1.18-.25,1.88l-1.88,10.68h-1.82l2.38-13.53c.09-.48.37-.72.85-.72h1.71c.37,0,.61.19.7.58l2.93,9.85c.23.67.43,1.36.61,2.06h.35c.09-.74.2-1.46.32-2.17l1.82-10.32h1.8Z"/>
    <path
      d="M545.1,128.29l.06-1.51c-1.42,1.18-2.94,1.78-4.57,1.78s-2.62-.59-3.13-1.78c-.5-1.18-.52-3.07-.07-5.66.49-2.79,1.27-4.72,2.32-5.77,1.05-1.05,2.7-1.58,4.93-1.58,1.5,0,2.8.15,3.89.43l-.43,1.36c-1.14-.11-2.35-.17-3.65-.17-1.09,0-1.93.14-2.54.43-.61.28-1.12.84-1.55,1.68-.42.84-.78,2.09-1.07,3.74-.37,2.11-.41,3.59-.1,4.44.3.85,1.03,1.28,2.17,1.28,1.07,0,2.32-.46,3.75-1.38l.97-5.53h1.77l-1.45,8.24h-1.32.02Z"/>
    <path
      d="M574.37,122.26l-2.82-.74c-.96-.25-1.6-.69-1.92-1.33s-.38-1.52-.19-2.63c.15-.83.35-1.49.61-1.99s.63-.88,1.09-1.14c.46-.25.96-.42,1.49-.5s1.23-.12,2.1-.12c1.68.03,3.06.17,4.16.41l-.36,1.32c-1.32-.07-2.66-.1-4.01-.1-.61,0-1.06.02-1.35.04-.29.03-.59.11-.89.25s-.52.35-.66.65c-.14.3-.26.71-.35,1.23-.13.76-.09,1.29.12,1.61s.63.56,1.27.72l2.76.72c1.01.26,1.68.71,1.99,1.34s.37,1.52.17,2.66c-.28,1.57-.81,2.61-1.61,3.12s-2.08.76-3.84.76c-1.5,0-2.95-.13-4.35-.39l.36-1.34c2.3.08,3.75.12,4.34.1,1.13,0,1.92-.14,2.36-.43.45-.29.75-.91.92-1.86.14-.78.1-1.33-.11-1.64-.22-.31-.64-.55-1.27-.71h-.01Z"/>
  </g>
  <g id="logoIcon">
    <polygon
      points="11.37 64.72 29.47 32.86 75.45 10.41 121.08 21.27 150.31 62.55 142.44 114.33 104.78 146.92 61.69 148.37 20.78 111.43 11.37 64.72"
      style="fill:#fff;" />
    <path
      d="M81.13,0C44.1,0,0,44.1,0,81.13s44.1,81.13,81.13,81.13,81.13-44.1,81.13-81.13S118.16,0,81.13,0Z"
      style="fill:#b12028;" />
    <path
      d="M38.88,94.32c-1.35-4.3-2.03-8.76-2.03-13.24,0-1.74.13-3.44.32-5.12h23.84l4.61-26.13h22.19l-4.61,26.13h30.15l-3.47,19.66h-30.15l-5.16,29.25c-6.82-1.01-13.29-3.59-18.99-7.63l-1.65-1.17,3.61-20.45h-18.25s-.41-1.3-.41-1.3Z"
      style="fill:#fff;" />
    <path
      d="M81.13,142.07c-11.07,0-21.45-2.97-30.4-8.13l2.35-13.17c7.93,5.61,17.6,8.92,28.06,8.92,26.85,0,48.62-21.77,48.62-48.62,0-4.41-.6-8.68-1.7-12.74h-39.3l3.26-18.52h26.35c-8.92-10.61-22.29-17.36-37.23-17.36-26.85,0-48.62,21.77-48.62,48.62,0,5.07.79,9.95,2.23,14.54h-12.84c-1.14-4.66-1.76-9.53-1.76-14.54,0-33.68,27.31-60.99,60.99-60.99s60.99,27.31,60.99,60.99-27.31,60.99-60.99,60.99h-.01Z"
      style="fill:#fff;" />
  </g>
</svg>